<?xml version="1.0" encoding="UTF-8" standalone="no"?>
<!-- Created with Inkscape (http://www.inkscape.org/) -->

<svg
   width="1138.3575"
   height="400"
   viewBox="0 0 1138.3575 400"
   version="1.1"
   id="svg1"
   xml:space="preserve"
   inkscape:version="1.4.4 (dcaf3e7, 2026-05-05)"
   sodipodi:docname="CSD.svg"
   xmlns:inkscape="http://www.inkscape.org/namespaces/inkscape"
   xmlns:sodipodi="http://sodipodi.sourceforge.net/DTD/sodipodi-0.dtd"
   xmlns="http://www.w3.org/2000/svg"
   xmlns:svg="http://www.w3.org/2000/svg"><sodipodi:namedview
     id="namedview1"
     pagecolor="#ffffff"
     bordercolor="#000000"
     borderopacity="0.16078431"
     inkscape:showpageshadow="2"
     inkscape:pageopacity="0.0"
     inkscape:pagecheckerboard="true"
     inkscape:deskcolor="#d1d1d1"
     inkscape:document-units="px"
     inkscape:zoom="0.5"
     inkscape:cx="1121"
     inkscape:cy="386"
     inkscape:window-width="1920"
     inkscape:window-height="1009"
     inkscape:window-x="1912"
     inkscape:window-y="-8"
     inkscape:window-maximized="1"
     inkscape:current-layer="layer1"
     inkscape:export-bgcolor="#ffffff00"><inkscape:page
       x="0"
       y="0"
       width="1138.3575"
       height="400"
       id="page2"
       margin="0"
       bleed="0" /></sodipodi:namedview><defs
     id="defs1" /><g
     inkscape:label="Capa 1"
     inkscape:groupmode="layer"
     id="layer1"
     transform="translate(-198.82121,-55.999992)"><g
       id="g29"
       transform="translate(142.82121)"
       inkscape:export-filename="g29.svg"
       inkscape:export-xdpi="152.04012"
       inkscape:export-ydpi="152.04012"><path
         d="M 255.99995,79.095766 226.08393,197.586 255.99995,186.78522 Z"
         style="fill:#b3b3b3;fill-opacity:1"
         id="path9" /><path
         d="M 255.99995,79.095766 V 186.73248 l 24.9043,-8.99219 z"
         style="fill:#ffffff;fill-opacity:1"
         id="path6" /><path
         d="m 334.20307,231.08014 -9,24.91992 h 107.70118 z"
         style="fill:#b3b3b3;fill-opacity:1"
         id="path14" /><path
         d="m 325.20307,256.00006 -10.80468,29.91992 118.50586,-29.91992 z"
         style="fill:#ffffff;fill-opacity:1"
         id="path19" /><path
         style="fill:#b3b3b3;fill-opacity:1;stroke-width:0.799423"
         d="m 195.12495,290.44733 -39.125,65.55273 65.54492,-39.11914 -5.33008,-21.10352 z"
         id="path26" /><path
         style="fill:#b3b3b3;fill-opacity:1;stroke-width:0.799423"
         d="m 314.3144,286.15631 -13.35937,36.99023 55.04492,32.85352 z"
         id="path25" /><path
         style="fill:#b3b3b3;fill-opacity:1;stroke-width:0.799423"
         d="m 155.99995,156.00006 32.84375,55.0293 36.98633,-13.35157 z"
         id="path11" /><path
         style="fill:#ffffff;fill-opacity:1;stroke:none"
         d="M 255.99996,256.00005 V 432.90423 L 220.33934,291.66065 Z"
         id="path27"
         sodipodi:nodetypes="cccc" /><path
         style="fill:#b3b3b3;fill-opacity:1;stroke:none"
         d="M 255.99993,256.00003 H 79.095753 l 141.243587,35.66062 z"
         id="path34"
         sodipodi:nodetypes="cccc" /><path
         style="fill:#b3b3b3;fill-opacity:1;stroke:none;stroke-width:0.4;stroke-dasharray:none;stroke-opacity:1"
         d="m 255.99995,256.00006 100.00002,-100.00002 -100,276.90418 z"
         id="path35" /><path
         style="fill:#ffffff;fill-opacity:1;stroke:none;stroke-width:0.4;stroke-dasharray:none;stroke-opacity:1"
         d="m 255.99992,256.00004 100.00002,-100.00002 -276.90418,100 z"
         id="path36" /><path
         id="circle20"
         style="fill:#b3b3b3;fill-opacity:1;stroke:#808000;stroke-width:0;stroke-linecap:square;stroke-dasharray:none;paint-order:stroke fill markers"
         d="m 397.42136,114.57864 a 200,200 0 0 0 -282.84272,0 l 13.25826,13.25826 a 181.25,181.25 0 0 1 256.3262,0 z" /><path
         id="path22"
         style="fill:#ffffff;fill-opacity:1;stroke:#808000;stroke-width:0;stroke-linecap:square;stroke-dasharray:none;paint-order:stroke fill markers"
         d="m 397.42136,114.57864 a 200,200 0 0 1 0,282.84272 L 384.1631,384.1631 a 181.25,181.25 0 0 0 0,-256.3262 z" /><path
         id="path23"
         style="fill:#ffffff;fill-opacity:1;stroke:#808000;stroke-width:0;stroke-linecap:square;stroke-dasharray:none;paint-order:stroke fill markers"
         d="m 114.57864,397.42136 a 200,200 0 0 1 0,-282.84272 l 13.25826,13.25826 a 181.25,181.25 0 0 0 0,256.3262 z" /><path
         id="path24"
         style="fill:#b3b3b3;fill-opacity:1;stroke:#808000;stroke-width:0;stroke-linecap:square;stroke-dasharray:none;paint-order:stroke fill markers"
         d="m 114.57864,397.42136 a 200,200 0 0 0 282.84272,0 L 384.1631,384.1631 a 181.25,181.25 0 0 1 -256.3262,0 z" /></g><g
       id="g28"
       transform="translate(142.82121,-35.601599)"><text
         xml:space="preserve"
         style="font-size:376.273px;writing-mode:lr-tb;direction:ltr;fill:#ffffff;fill-opacity:1;stroke:#808000;stroke-width:0;stroke-linecap:square;stroke-dasharray:none;paint-order:stroke fill markers"
         x="481.49661"
         y="390.21609"
         id="text27"><tspan
           sodipodi:role="line"
           id="tspan27"
           x="481.49661"
           y="390.21609"
           style="font-style:normal;font-variant:normal;font-weight:900;font-stretch:normal;font-size:376.273px;font-family:Roboto;-inkscape-font-specification:'Roboto Heavy';stroke-width:0">CSD</tspan></text><text
         xml:space="preserve"
         style="font-style:normal;font-variant:normal;font-weight:900;font-stretch:normal;font-size:67.1727px;font-family:Roboto;-inkscape-font-specification:'Roboto Heavy';writing-mode:lr-tb;direction:ltr;fill:#b3b3b3;fill-opacity:1;stroke:#808000;stroke-width:0;stroke-linecap:square;stroke-dasharray:none;paint-order:stroke fill markers"
         x="492.06168"
         y="450.37952"
         id="text28"><tspan
           sodipodi:role="line"
           id="tspan28"
           x="492.06168"
           y="450.37952"
           style="font-size:67.1727px;stroke-width:0">Carpeta Scouter Digital</tspan></text></g></g></svg>
